<svg width="32" height="32" viewBox="0 0 32 32" fill="none" xmlns="http://www.w3.org/2000/svg">
<g clip-path="url(#clip0_58_16324)">
<path d="M16 32C24.8366 32 32 24.8366 32 16C32 7.16344 24.8366 0 16 0C7.16344 0 0 7.16344 0 16C0 24.8366 7.16344 32 16 32Z" fill="#EB5939"/>
<path d="M17.6608 14.0306V12.141H21.96V9.16016H10.0288V12.141H14.3392V14.0306C10.728 14.205 8.01758 14.9298 8.01758 15.7906C8.01758 16.6514 10.7248 17.3794 14.3392 17.5506V23.7906H17.6608V17.5506C21.272 17.3778 23.9824 16.653 23.9824 15.7906C23.9824 14.9282 21.28 14.205 17.6608 14.0306ZM16 17.0002C12.0896 17.0002 8.91998 16.3954 8.91998 15.6674C8.91998 15.0418 11.2288 14.5154 14.336 14.3746V16.509C14.8704 16.533 15.4256 16.5474 15.9968 16.5474C16.568 16.5474 17.1264 16.533 17.6576 16.509V14.3746C20.7648 14.5154 23.0736 15.0418 23.0736 15.6674C23.08 16.4034 19.9104 17.0002 16 17.0002Z" fill="white"/>
</g>
<defs>
<clipPath id="clip0_58_16324">
<rect width="32" height="32" fill="white"/>
</clipPath>
</defs>
</svg>
